<svg xmlns="http://www.w3.org/2000/svg" width="102.383" height="75.04" viewBox="0 0 102.383 75.04">
  <g id="Group_118735" data-name="Group 118735" transform="translate(9301 14332.173)">
    <g id="Group_17728" data-name="Group 17728" transform="translate(-9301 -14332.173)" opacity="0.47">
      <path id="Path_2" data-name="Path 2" d="M1961.377,2087.041q-.755-.527-1.469-1.122c-3.852-3.219-5.823-8.276-9.134-12.051a61.429,61.429,0,0,0-10.941-10.019c-8.34-5.752-18.142-7.823-27.184-5.108-9.66,2.9-17.969,10.632-22.172,20.415a41.529,41.529,0,0,0-.345,31.241c3.6,8.988,10.857,17.494,19.614,20.665,6.663,2.413,13.711,1.6,20.328.195,9.159-1.944,17.818-3.969,27.454-2.783,5.946.732,11.437,2.093,17.141.337,5.3-1.633,9.761-6.274,12.338-11.391a24.951,24.951,0,0,0,1.967-16.83c-1.045-4.371-3.78-8.858-7.838-10.075-2.688-.806-5.418-.047-8.136.075A19.079,19.079,0,0,1,1961.377,2087.041Z" transform="translate(-1887.252 -2057.561)" fill="#84a4fc" opacity="0.11"/>
      <path id="Path_3" data-name="Path 3" d="M1913.045,2084.643q.689-.484,1.341-1.031c3.516-2.957,5.314-7.6,8.336-11.069a56.194,56.194,0,0,1,9.987-9.2c7.612-5.284,16.56-7.187,24.813-4.692,8.817,2.665,16.4,9.766,20.237,18.753a38.376,38.376,0,0,1,.315,28.7c-3.285,8.256-9.909,16.071-17.9,18.984-6.082,2.216-12.514,1.468-18.555.178-8.36-1.786-16.264-3.646-25.059-2.557-5.427.672-10.439,1.923-15.646.31-4.839-1.5-8.91-5.763-11.262-10.464a23.054,23.054,0,0,1-1.8-15.46c.954-4.015,3.449-8.137,7.154-9.256,2.454-.741,4.946-.043,7.427.069A17.332,17.332,0,0,0,1913.045,2084.643Z" transform="translate(-1882.787 -2054.508)" fill="#e5ebfb" opacity="0.4" style="mix-blend-mode: multiply;isolation: isolate"/>
    </g>
    <g id="Group_118587" data-name="Group 118587" transform="translate(-9275 -14321.453)">
      <path id="Path_77138" data-name="Path 77138" d="M25.116,3.257a1.6,1.6,0,0,0-.327.033,1.468,1.468,0,0,0-1.114,1.745l.172.831.15.8.111.8.033.294a1.463,1.463,0,0,0,1.607,1.308h.006a1.463,1.463,0,0,0,1.3-1.612l-.033-.31V7.086l-.127-.853V6.177l-.15-.853-.011-.055-.2-.853A1.462,1.462,0,0,0,25.116,3.257ZM25.393,12a1.467,1.467,0,0,0-1.341,1.236l-.1.6-.139.776-.172.77-.15.571a1.463,1.463,0,0,0,1.031,1.8l.006.006a1.474,1.474,0,0,0,1.8-1.042V16.7l.155-.6.011-.039.194-.826.011-.05.15-.837.017-.044.094-.626a1.46,1.46,0,0,0-1.236-1.662A1.3,1.3,0,0,0,25.393,12ZM22.55,20.273a1.261,1.261,0,0,0-.283.05,1.459,1.459,0,0,0-.875.693l-.111.194-.41.682-.432.665-.465.648-.066.089a1.466,1.466,0,1,0,2.327,1.784l.089-.111.033-.039.482-.7.039-.039.46-.7.022-.044.449-.726.017-.044.122-.227a1.466,1.466,0,0,0-1.4-2.172Zm-5.413,6.66v.006a1.462,1.462,0,0,0-1.047.321l-.648.5-.748.532-.759.5-.066.044a1.462,1.462,0,0,0-.51,2.006v.006a1.473,1.473,0,0,0,2.006.51l.094-.055.055-.033.815-.532.055-.044.787-.56.044-.033.693-.543.044-.028a1.467,1.467,0,0,0,.183-2.067v-.006A1.486,1.486,0,0,0,17.137,26.933ZM9.2,31.055a1.56,1.56,0,0,0-.321.055v.006l-.715.216-.875.222-.875.188-.211.033A1.462,1.462,0,0,0,5,33.46v.017a1.465,1.465,0,0,0,1.69,1.186l.238-.033.055-.011.942-.205.066-.011.931-.238.055-.017.731-.222A1.466,1.466,0,0,0,10.7,32.1L10.7,32.1A1.46,1.46,0,0,0,9.2,31.055Z" transform="translate(22.624 14.79)" fill="#ef2a4c" fill-rule="evenodd"/>
      <path id="Path_77139" data-name="Path 77139" d="M24.923,0A24.924,24.924,0,0,0,22.8,49.756a1.465,1.465,0,0,0,.249-2.92A21.993,21.993,0,1,1,42.842,12.173l-3.485-.465a1.47,1.47,0,0,0-.388,2.914l7.076.947A1.467,1.467,0,0,0,47.7,14.312l.006-.05.693-7.053a1.467,1.467,0,0,0-2.92-.294l-.338,3.43A24.921,24.921,0,0,0,24.923,0" fill="#4e3495" fill-rule="evenodd"/>
      <path id="Path_77140" data-name="Path 77140" d="M5.578,2.125A1.471,1.471,0,0,0,4.115,3.6V17.49A1.489,1.489,0,0,0,4.8,18.736l6.765,4.217a1.464,1.464,0,0,0,1.551-2.482v-.006L7.052,16.681V3.6A1.471,1.471,0,0,0,5.589,2.125H5.578" transform="translate(18.686 9.648)" fill="#4e3495" fill-rule="evenodd"/>
    </g>
  </g>
</svg>
