<svg xmlns="http://www.w3.org/2000/svg" width="102.383" height="75.039" viewBox="0 0 102.383 75.039">
  <g id="Group_118733" data-name="Group 118733" transform="translate(10013 15460.228)">
    <g id="Group_17728" data-name="Group 17728" transform="translate(-10017.858 -15472.263)" opacity="0.47">
      <path id="Path_2" data-name="Path 2" d="M1961.377,2085.055q-.755-.491-1.469-1.046c-3.852-3-5.823-7.719-9.134-11.239a60.088,60.088,0,0,0-10.941-9.344c-8.34-5.365-18.142-7.3-27.184-4.764a35.375,35.375,0,0,0-22.172,19.039,36.321,36.321,0,0,0-.345,29.136c3.6,8.382,10.857,16.316,19.614,19.273,6.663,2.25,13.711,1.491,20.328.182,9.159-1.813,17.818-3.7,27.454-2.6,5.946.683,11.437,1.952,17.141.314,5.3-1.523,9.761-5.851,12.338-10.623a21.863,21.863,0,0,0,1.967-15.7c-1.045-4.077-3.78-8.261-7.838-9.4-2.688-.752-5.418-.043-8.136.07A20.063,20.063,0,0,1,1961.377,2085.055Z" transform="translate(-1882.394 -2040.471)" fill="#84a4fc" opacity="0.11"/>
      <path id="Path_3" data-name="Path 3" d="M1913.045,2082.657q.689-.448,1.341-.956c3.516-2.74,5.314-7.045,8.336-10.258a54.834,54.834,0,0,1,9.987-8.529c7.612-4.9,16.56-6.659,24.813-4.348a32.289,32.289,0,0,1,20.237,17.378,33.151,33.151,0,0,1,.315,26.594c-3.285,7.65-9.909,14.892-17.9,17.592-6.082,2.053-12.514,1.361-18.555.165-8.36-1.655-16.264-3.379-25.059-2.369-5.427.623-10.439,1.782-15.646.287-4.839-1.39-8.91-5.341-11.262-9.7a19.956,19.956,0,0,1-1.8-14.326c.954-3.721,3.449-7.541,7.154-8.577,2.454-.687,4.946-.04,7.427.063A18.307,18.307,0,0,0,1913.045,2082.657Z" transform="translate(-1877.929 -2037.418)" fill="#e5ebfb" opacity="0.4" style="mix-blend-mode: multiply;isolation: isolate"/>
    </g>
    <g id="Group_118574" data-name="Group 118574" transform="translate(-9995.146 -15460.228)">
      <g id="Group_118569" data-name="Group 118569" transform="translate(7.146 0)">
        <path id="Path_77115" data-name="Path 77115" d="M9.6,55.613v0Z" transform="translate(-8.98 1.042)" fill="#4e3495"/>
        <path id="Path_77116" data-name="Path 77116" d="M9.8,53.3Z" transform="translate(-8.974 0.979)" fill="#4e3495"/>
        <path id="Path_77117" data-name="Path 77117" d="M9.826,55.107v.207h0v.1h0a5.561,5.561,0,0,1-.1,1.136v-.207a8.031,8.031,0,0,0-.1,1.343v-.31c-.1,1.549-.31,4.132-.62,8.057H9a1.468,1.468,0,0,0,.207.62c.1.207.31.207.62.207h22.93a.732.732,0,0,0,.723-.826c-.826-10.742-3.1-39.044-3.925-49.786a4.067,4.067,0,0,0-3.2-3.718L25.01,3.566A2.44,2.44,0,0,0,22.634,1.5H19.742a2.427,2.427,0,0,0-2.376,2.066l-1.343,8.366a4.17,4.17,0,0,0-3.2,3.718c-1.756,23.963-2.686,34.809-3,39.457Zm-.1.62v0Zm9.3-52.058a.876.876,0,0,1,.826-.723h2.892a.876.876,0,0,1,.826.723L24.8,11.726H17.676ZM14.474,15.754a2.766,2.766,0,0,1,2.582-2.479h8.366a2.68,2.68,0,0,1,2.582,2.479l1.033,13.634h-15.7ZM13.235,30.938h16.01v.1h0c0,.413.207,3.2,1.239,16.01H12v-.207h0C12.1,45.915,12.409,42.506,13.235,30.938Zm16.01.207Zm0,0ZM12,47.051v0Zm-.1,1.549h18.8l.826,10.432H11.066Zm-.93,11.982H31.62l.31,4.132H10.653Z" transform="translate(-9 -0.725)" fill="#4e3495"/>
        <path id="Path_77118" data-name="Path 77118" d="M9.7,55.007v0Z" transform="translate(-8.977 1.029)" fill="#4e3495"/>
        <path id="Path_77119" data-name="Path 77119" d="M28.6,30Z" transform="translate(-8.355 0.212)" fill="#4e3495"/>
        <path id="Path_77120" data-name="Path 77120" d="M9.6,55.207V55C9.7,55,9.7,55.1,9.6,55.207Z" transform="translate(-8.98 1.035)" fill="#4e3495"/>
        <path id="Path_77121" data-name="Path 77121" d="M11.9,45.3Z" transform="translate(-8.904 0.716)" fill="#4e3495"/>
        <path id="Path_77122" data-name="Path 77122" d="M9.8,53.6Z" transform="translate(-8.974 0.988)" fill="#4e3495"/>
        <path id="Path_77123" data-name="Path 77123" d="M21.055,42.813a4.849,4.849,0,0,0,4.855-4.855A4.938,4.938,0,0,0,21.055,33,4.849,4.849,0,0,0,16.2,37.855,4.938,4.938,0,0,0,21.055,42.813Zm0-8.263a3.328,3.328,0,0,1,3.305,3.305,3.418,3.418,0,0,1-3.305,3.409,3.328,3.328,0,0,1-3.305-3.305A3.418,3.418,0,0,1,21.055,34.549Z" transform="translate(-8.763 0.311)" fill="#ef2a4c"/>
        <path id="Path_77124" data-name="Path 77124" d="M54.409,24.145a.781.781,0,0,0,.413-.1.939.939,0,0,0,.413-.826c-1.239-6.817.723-7.127,2.169-9.5A9.694,9.694,0,0,0,54.925.9.775.775,0,0,0,54,.9a.692.692,0,0,0-.31.826c1.136,3.305,1.446,6.507-.31,9.606-.62,1.136-2.582,2.892-2.376,6.4a9.443,9.443,0,0,0,2.892,6.094C54,24.145,54.2,24.145,54.409,24.145Zm.31-11.982a11.41,11.41,0,0,0,1.239-7.85,8.439,8.439,0,0,1,.1,8.676c-1.136,1.963-3,2.686-2.686,7.54C51.207,15.985,54,13.506,54.719,12.164Z" transform="translate(-7.619 -0.75)" fill="#ef2a4c"/>
        <path id="Path_77125" data-name="Path 77125" d="M40.171,31.664v31.09a3.512,3.512,0,1,0,7.024,0v-31.3a.781.781,0,0,0-.1-.413l-5.164-9.709H50.19V19.786H41.824V17.2H50.19V15.654H41.824V13.072H50.19V11.522H41.824V8.94H50.19V7.391H41.824V4.809H50.19V3.259h-8.78a3.408,3.408,0,0,0-3.1-1.859A3.483,3.483,0,0,0,34.8,4.912V21.335a.781.781,0,0,0,.1.413ZM36.349,4.912a1.961,1.961,0,0,1,1.963-1.963,2.014,2.014,0,0,1,1.963,1.859V21.232a.781.781,0,0,0,.1.413l5.268,10.019v31.09a1.963,1.963,0,1,1-3.925,0v-31.3a.781.781,0,0,0-.1-.413L36.349,21.025Z" transform="translate(-8.151 -0.728)" fill="#4e3495"/>
        <path id="Path_77126" data-name="Path 77126" d="M9.826,55.107v.207h0v.1h0a5.561,5.561,0,0,1-.1,1.136v-.207a8.031,8.031,0,0,0-.1,1.343v-.31c-.1,1.549-.31,4.132-.62,8.057H9a1.468,1.468,0,0,0,.207.62c.1.207.31.207.62.207h22.93a.732.732,0,0,0,.723-.826c-.826-10.742-3.1-39.044-3.925-49.786a4.067,4.067,0,0,0-3.2-3.718L25.01,3.566A2.44,2.44,0,0,0,22.634,1.5H19.742a2.427,2.427,0,0,0-2.376,2.066l-1.343,8.366a4.17,4.17,0,0,0-3.2,3.718c-1.756,23.963-2.686,34.809-3,39.457Zm-.1.62v0Zm9.3-52.058a.876.876,0,0,1,.826-.723h2.892a.876.876,0,0,1,.826.723L24.8,11.726H17.676ZM14.474,15.754a2.766,2.766,0,0,1,2.582-2.479h8.366a2.68,2.68,0,0,1,2.582,2.479l1.033,13.634h-15.7ZM13.235,30.938h16.01v.1h0c0,.413.207,3.2,1.239,16.01H12v-.207h0C12.1,45.915,12.409,42.506,13.235,30.938Zm16.01.207Zm0,0ZM12,47.051v0Zm-.1,1.549h18.8l.826,10.432H11.066Zm-.93,11.982H31.62l.31,4.132H10.653Z" transform="translate(-9 -0.725)" fill="#4e3495"/>
        <path id="Path_77127" data-name="Path 77127" d="M9.826,55.107v.207h0v.1h0a5.561,5.561,0,0,1-.1,1.136v-.207a8.031,8.031,0,0,0-.1,1.343v-.31c-.1,1.549-.31,4.132-.62,8.057H9a1.468,1.468,0,0,0,.207.62c.1.207.31.207.62.207h22.93a.732.732,0,0,0,.723-.826c-.826-10.742-3.1-39.044-3.925-49.786a4.067,4.067,0,0,0-3.2-3.718L25.01,3.566A2.44,2.44,0,0,0,22.634,1.5H19.742a2.427,2.427,0,0,0-2.376,2.066l-1.343,8.366a4.17,4.17,0,0,0-3.2,3.718c-1.756,23.963-2.686,34.809-3,39.457Zm-.1.62v0Zm9.3-52.058a.876.876,0,0,1,.826-.723h2.892a.876.876,0,0,1,.826.723L24.8,11.726H17.676ZM14.474,15.754a2.766,2.766,0,0,1,2.582-2.479h8.366a2.68,2.68,0,0,1,2.582,2.479l1.033,13.634h-15.7ZM13.235,30.938h16.01v.1h0c0,.413.207,3.2,1.239,16.01H12v-.207h0C12.1,45.915,12.409,42.506,13.235,30.938Zm16.01.207Zm0,0ZM12,47.051v0Zm-.1,1.549h18.8l.826,10.432H11.066Zm-.93,11.982H31.62l.31,4.132H10.653Z" transform="translate(-9 -0.725)" fill="#4e3495"/>
      </g>
    </g>
  </g>
</svg>
