<svg xmlns="http://www.w3.org/2000/svg" width="102.383" height="75.04" viewBox="0 0 102.383 75.04">
  <g id="Group_118739" data-name="Group 118739" transform="translate(-143.952 -340)">
    <g id="Group_118635" data-name="Group 118635" transform="translate(143.952 340)" opacity="0.47">
      <path id="Path_2" data-name="Path 2" d="M1961.377,2087.041q-.755-.527-1.469-1.122c-3.852-3.219-5.823-8.276-9.134-12.051a61.429,61.429,0,0,0-10.941-10.019c-8.34-5.752-18.142-7.823-27.184-5.108-9.66,2.9-17.969,10.632-22.172,20.415a41.529,41.529,0,0,0-.345,31.241c3.6,8.988,10.857,17.494,19.614,20.665,6.663,2.413,13.711,1.6,20.328.195,9.159-1.944,17.818-3.969,27.454-2.783,5.946.732,11.437,2.093,17.141.337,5.3-1.633,9.761-6.274,12.338-11.391a24.951,24.951,0,0,0,1.967-16.83c-1.045-4.371-3.78-8.858-7.838-10.075-2.688-.806-5.418-.047-8.136.075A19.079,19.079,0,0,1,1961.377,2087.041Z" transform="translate(-1887.252 -2057.561)" fill="#84a4fc" opacity="0.11"/>
      <path id="Path_3" data-name="Path 3" d="M1913.045,2084.643q.689-.484,1.341-1.031c3.516-2.957,5.314-7.6,8.336-11.069a56.194,56.194,0,0,1,9.987-9.2c7.612-5.284,16.56-7.187,24.813-4.692,8.817,2.665,16.4,9.766,20.237,18.753a38.376,38.376,0,0,1,.315,28.7c-3.285,8.256-9.909,16.071-17.9,18.984-6.082,2.216-12.514,1.468-18.555.178-8.36-1.786-16.264-3.646-25.059-2.557-5.427.672-10.439,1.923-15.646.31-4.839-1.5-8.91-5.763-11.262-10.464a23.054,23.054,0,0,1-1.8-15.46c.954-4.015,3.449-8.137,7.154-9.256,2.454-.741,4.946-.043,7.427.069A17.332,17.332,0,0,0,1913.045,2084.643Z" transform="translate(-1882.787 -2054.508)" fill="#e5ebfb" opacity="0.4" style="mix-blend-mode: multiply;isolation: isolate"/>
    </g>
    <g id="Group_118636" data-name="Group 118636" transform="translate(153.952 340)">
      <g id="Group_118591" data-name="Group 118591" transform="translate(66.074 18.122)">
        <path id="Path_77144" data-name="Path 77144" d="M389.9,210.043a.936.936,0,0,1-.348-1.8l9.27-3.712a.936.936,0,0,1,.7,1.737l-9.27,3.712A.928.928,0,0,1,389.9,210.043Z" transform="translate(-388.959 -204.459)" fill="#ef2a4c"/>
      </g>
      <g id="Group_118590" data-name="Group 118590" transform="translate(4.439 14.58)">
        <path id="Path_77143" data-name="Path 77143" d="M76.058,220.844a17.59,17.59,0,0,1-16.29-11.033.933.933,0,0,1,.52-1.217l6.724-2.692a.737.737,0,0,1,.067-.03l9.437-3.781.045-.017,38.182-15.288a17.626,17.626,0,0,1,17.374,2.493l.026.021a17.545,17.545,0,0,1,5.421,7.252.937.937,0,0,1-.517,1.217l-29.176,11.818a.936.936,0,0,1-.7-1.735l28.285-11.458a15.651,15.651,0,0,0-4.487-5.64.25.25,0,0,0-.026-.021,15.751,15.751,0,0,0-15.5-2.211L77.219,203.826l-.043.017-9.332,3.738c-.022.011-.045.021-.067.03l-5.9,2.361a15.675,15.675,0,0,0,20.009,7.864l13.546-5.288a.937.937,0,0,1,.681,1.745l-13.538,5.285A17.462,17.462,0,0,1,76.058,220.844Z" transform="translate(-59.701 -185.536)" fill="#4e3495"/>
      </g>
      <g id="Group_118597" data-name="Group 118597" transform="translate(26.101 24.735)">
        <g id="Group_118592" data-name="Group 118592" transform="translate(0 13.109)">
          <path id="Path_77145" data-name="Path 77145" d="M176.356,311.686a1,1,0,0,1-.183-.017.936.936,0,0,1-.174-.054.845.845,0,0,1-.163-.086.909.909,0,0,1-.258-.258,1.022,1.022,0,0,1-.086-.161,1,1,0,0,1-.052-.176.859.859,0,0,1-.019-.183.929.929,0,0,1,.416-.777.847.847,0,0,1,.163-.086.936.936,0,0,1,1.294.863,1,1,0,0,1-.019.183.867.867,0,0,1-.054.176.887.887,0,0,1-.086.161.94.94,0,0,1-.116.142.856.856,0,0,1-.142.116.887.887,0,0,1-.161.086.982.982,0,0,1-.174.054A1.027,1.027,0,0,1,176.356,311.686Z" transform="translate(-175.42 -309.814)" fill="#ef2a4c"/>
        </g>
        <g id="Group_118593" data-name="Group 118593" transform="translate(8.184 9.832)">
          <path id="Path_77146" data-name="Path 77146" d="M220.074,294.177a.936.936,0,0,1-.934-.938.994.994,0,0,1,.017-.182.958.958,0,0,1,.054-.176.885.885,0,0,1,.086-.161.938.938,0,0,1,.116-.142.854.854,0,0,1,.142-.116.889.889,0,0,1,.161-.086.957.957,0,0,1,.176-.054.932.932,0,0,1,.96.4.887.887,0,0,1,.086.161.957.957,0,0,1,.054.176.994.994,0,0,1,.017.182.936.936,0,0,1-.936.938Z" transform="translate(-219.14 -292.304)" fill="#ef2a4c"/>
        </g>
        <g id="Group_118594" data-name="Group 118594" transform="translate(16.367 6.554)">
          <path id="Path_77147" data-name="Path 77147" d="M263.786,276.668a1.034,1.034,0,0,1-.183-.019.987.987,0,0,1-.174-.054.887.887,0,0,1-.161-.086.859.859,0,0,1-.142-.116.968.968,0,0,1-.118-.142,1.017,1.017,0,0,1-.086-.161.954.954,0,0,1-.052-.176.9.9,0,0,1,0-.365,1,1,0,0,1,.052-.176,1.018,1.018,0,0,1,.086-.161,1.083,1.083,0,0,1,.118-.142.859.859,0,0,1,.142-.116.887.887,0,0,1,.161-.086.843.843,0,0,1,.174-.052.867.867,0,0,1,.367,0,.934.934,0,0,1,.174.052.845.845,0,0,1,.163.086.909.909,0,0,1,.258.258,1.023,1.023,0,0,1,.086.161,1,1,0,0,1,.052.176.9.9,0,0,1,0,.365.952.952,0,0,1-.052.176,1.021,1.021,0,0,1-.086.161.855.855,0,0,1-.116.142A.945.945,0,0,1,263.786,276.668Z" transform="translate(-262.85 -274.795)" fill="#ef2a4c"/>
        </g>
        <g id="Group_118595" data-name="Group 118595" transform="translate(24.551 3.277)">
          <path id="Path_77148" data-name="Path 77148" d="M307.506,259.164a.861.861,0,0,1-.183-.019.936.936,0,0,1-.174-.052.964.964,0,0,1-.163-.086,1.081,1.081,0,0,1-.142-.118.858.858,0,0,1-.116-.142,1.021,1.021,0,0,1-.086-.161.98.98,0,0,1-.052-.174.885.885,0,0,1-.019-.183.86.86,0,0,1,.019-.183.936.936,0,0,1,.052-.174.961.961,0,0,1,.086-.163.911.911,0,0,1,.258-.258.963.963,0,0,1,.163-.086.942.942,0,0,1,.541-.052.975.975,0,0,1,.174.052,1.024,1.024,0,0,1,.161.086.86.86,0,0,1,.142.116,1.081,1.081,0,0,1,.118.142.961.961,0,0,1,.086.163.936.936,0,0,1,.052.174.86.86,0,0,1,.019.183.885.885,0,0,1-.019.183.98.98,0,0,1-.052.174,1.03,1.03,0,0,1-.088.161.857.857,0,0,1-.116.142A.94.94,0,0,1,307.506,259.164Z" transform="translate(-306.57 -257.293)" fill="#ef2a4c"/>
        </g>
        <g id="Group_118596" data-name="Group 118596" transform="translate(32.735)">
          <path id="Path_77149" data-name="Path 77149" d="M351.226,241.656a.933.933,0,0,1-.936-.936,1.032,1.032,0,0,1,.017-.183.938.938,0,0,1,.054-.174.887.887,0,0,1,.086-.161.858.858,0,0,1,.116-.142.944.944,0,0,1,.844-.256.833.833,0,0,1,.176.054.784.784,0,0,1,.161.086.91.91,0,0,1,.258.258.885.885,0,0,1,.086.161.938.938,0,0,1,.054.174,1.034,1.034,0,0,1,.019.183.948.948,0,0,1-.275.663.854.854,0,0,1-.142.116,1.022,1.022,0,0,1-.161.086.952.952,0,0,1-.176.052A.853.853,0,0,1,351.226,241.656Z" transform="translate(-350.29 -239.784)" fill="#ef2a4c"/>
        </g>
      </g>
      <g id="Group_118598" data-name="Group 118598" transform="translate(2.707 20.135)">
        <path id="Path_77150" data-name="Path 77150" d="M59.912,231.8a.932.932,0,0,1-.794-.44l-8.424-13.443a1.581,1.581,0,0,1,1.269-2.419l6.348-.283a3.845,3.845,0,0,1,3.078,1.318l8.667,9.931a.935.935,0,0,1-1.41,1.23l-8.667-9.931a1.971,1.971,0,0,0-1.584-.678l-5.848.26,8.158,13.02a.938.938,0,0,1-.794,1.434Z" transform="translate(-50.451 -215.211)" fill="#4e3495"/>
      </g>
      <g id="Group_118599" data-name="Group 118599" transform="translate(39.368 35.006)">
        <path id="Path_77151" data-name="Path 77151" d="M250.123,304.866a3.831,3.831,0,0,1-1.425-7.387l6.368-2.551a3.83,3.83,0,1,1,2.849,7.11h0l-6.368,2.552A3.812,3.812,0,0,1,250.123,304.866Zm6.37-8.341a1.933,1.933,0,0,0-.728.142l-6.368,2.552a1.958,1.958,0,1,0,1.454,3.635l6.368-2.551h0a1.959,1.959,0,0,0,.043-3.618A1.933,1.933,0,0,0,256.493,296.525Zm1.076,4.646Z" transform="translate(-246.291 -294.651)" fill="#4e3495"/>
      </g>
      <g id="Group_118600" data-name="Group 118600" transform="translate(52.958)">
        <path id="Path_77152" data-name="Path 77152" d="M330.629,118.232H322.9a4.012,4.012,0,0,1,0-8.023c.041,0,.082,0,.124,0a4.012,4.012,0,0,1,7.48,0c.041,0,.082,0,.124,0a4.012,4.012,0,1,1,0,8.023Zm-7.727-6.151a2.14,2.14,0,0,0,0,4.279h7.727a2.14,2.14,0,1,0-.567-4.2.937.937,0,0,1-1.176-.781,2.14,2.14,0,0,0-4.242,0,.937.937,0,0,1-1.176.781A2.158,2.158,0,0,0,322.9,112.081Z" transform="translate(-318.89 -107.65)" fill="#4e3495"/>
      </g>
      <g id="Group_118601" data-name="Group 118601" transform="translate(57.559 39.577)">
        <path id="Path_77153" data-name="Path 77153" d="M355.188,329.637h-7.712a4.006,4.006,0,0,1,0-8.012c.041,0,.082,0,.122,0a4.006,4.006,0,0,1,7.469,0c.041,0,.082,0,.122,0a4.006,4.006,0,0,1,0,8.012Zm-7.714-6.14a2.134,2.134,0,0,0,0,4.268h7.712a2.134,2.134,0,1,0,0-4.268,2.158,2.158,0,0,0-.567.077.937.937,0,0,1-1.176-.781,2.134,2.134,0,0,0-4.231,0,.937.937,0,0,1-1.176.781A2.109,2.109,0,0,0,347.474,323.5Z" transform="translate(-343.47 -319.07)" fill="#4e3495"/>
      </g>
      <g id="Group_118602" data-name="Group 118602" transform="translate(16.211 6.934)">
        <path id="Path_77154" data-name="Path 77154" d="M133.854,154.888h-7.387a3.876,3.876,0,1,1,.09-7.752,3.877,3.877,0,0,1,7.207,0l.09,0a3.877,3.877,0,1,1,0,7.754Zm-7.387-5.88a2,2,0,0,0,0,4.01h7.387a2,2,0,0,0,0-4.01,2.044,2.044,0,0,0-.532.071.937.937,0,0,1-1.176-.781,2,2,0,0,0-3.972,0,.937.937,0,0,1-1.176.781A2.044,2.044,0,0,0,126.467,149.009Z" transform="translate(-122.59 -144.69)" fill="#4e3495"/>
      </g>
      <g id="Group_118603" data-name="Group 118603" transform="translate(0 48.37)">
        <path id="Path_77155" data-name="Path 77155" d="M36.928,371.151a.937.937,0,0,1-.481-1.741l5.421-3.237a.936.936,0,1,1,.96,1.608l-5.421,3.237A.927.927,0,0,1,36.928,371.151Z" transform="translate(-35.991 -366.041)" fill="#ef2a4c"/>
      </g>
      <g id="Group_118604" data-name="Group 118604" transform="translate(5.889 51)">
        <path id="Path_77156" data-name="Path 77156" d="M68.388,384.632a.937.937,0,0,1-.481-1.741l4.468-2.668a.936.936,0,0,1,.96,1.608L68.868,384.5A.927.927,0,0,1,68.388,384.632Z" transform="translate(-67.451 -380.091)" fill="#ef2a4c"/>
      </g>
    </g>
  </g>
</svg>
