<svg xmlns="http://www.w3.org/2000/svg" width="102.383" height="75.039" viewBox="0 0 102.383 75.039">
  <g id="Group_118734" data-name="Group 118734" transform="translate(9537 14333.228)">
    <g id="Group_118615" data-name="Group 118615" transform="translate(-9541.858 -14345.263)" opacity="0.47">
      <path id="Path_2" data-name="Path 2" d="M1961.377,2085.055q-.755-.491-1.469-1.046c-3.852-3-5.823-7.719-9.134-11.239a60.088,60.088,0,0,0-10.941-9.344c-8.34-5.365-18.142-7.3-27.184-4.764a35.375,35.375,0,0,0-22.172,19.039,36.321,36.321,0,0,0-.345,29.136c3.6,8.382,10.857,16.316,19.614,19.273,6.663,2.25,13.711,1.491,20.328.182,9.159-1.813,17.818-3.7,27.454-2.6,5.946.683,11.437,1.952,17.141.314,5.3-1.523,9.761-5.851,12.338-10.623a21.863,21.863,0,0,0,1.967-15.7c-1.045-4.077-3.78-8.261-7.838-9.4-2.688-.752-5.418-.043-8.136.07A20.063,20.063,0,0,1,1961.377,2085.055Z" transform="translate(-1882.394 -2040.471)" fill="#84a4fc" opacity="0.11"/>
      <path id="Path_3" data-name="Path 3" d="M1913.045,2082.657q.689-.448,1.341-.956c3.516-2.74,5.314-7.045,8.336-10.258a54.834,54.834,0,0,1,9.987-8.529c7.612-4.9,16.56-6.659,24.813-4.348a32.289,32.289,0,0,1,20.237,17.378,33.151,33.151,0,0,1,.315,26.594c-3.285,7.65-9.909,14.892-17.9,17.592-6.082,2.053-12.514,1.361-18.555.165-8.36-1.655-16.264-3.379-25.059-2.369-5.427.623-10.439,1.782-15.646.287-4.839-1.39-8.91-5.341-11.262-9.7a19.956,19.956,0,0,1-1.8-14.326c.954-3.721,3.449-7.541,7.154-8.577,2.454-.687,4.946-.04,7.427.063A18.307,18.307,0,0,0,1913.045,2082.657Z" transform="translate(-1877.929 -2037.418)" fill="#e5ebfb" opacity="0.4" style="mix-blend-mode: multiply;isolation: isolate"/>
    </g>
    <g id="Group_118616" data-name="Group 118616" transform="translate(480.308 1132.055)">
      <path id="Path_77163" data-name="Path 77163" d="M8.02,45.44a.968.968,0,1,1,0-1.935H18.05a.968.968,0,0,1,0,1.935Zm0-6.128a.968.968,0,1,1,0-1.935H27a7.168,7.168,0,0,1,2.061-4.335l0,0a7.225,7.225,0,0,1,10.192,0l2.666,2.666V6.876A2.379,2.379,0,0,0,39.547,4.5H35.078a4.246,4.246,0,0,1-.271,1.05,3.728,3.728,0,0,1-3.639,2.381H12.687A3.73,3.73,0,0,1,9.048,5.553,4.233,4.233,0,0,1,8.777,4.5H4.309A2.379,2.379,0,0,0,1.937,6.876V51.427A2.379,2.379,0,0,0,4.309,53.8h17.57l-.008-3.108c0-.039,0-.076,0-.115,0-1.225,1.379-2.208,3.608-2.806a29.182,29.182,0,0,1,7.226-.809h.092l-3.732-3.732a7.153,7.153,0,0,1-2.007-3.918H8.02ZM12.687,0A3.73,3.73,0,0,0,9.048,2.381c-.025.062-.048.123-.07.186H4.309A4.316,4.316,0,0,0,0,6.876V51.427a4.316,4.316,0,0,0,4.309,4.309H21.884l0,.881c0,.022-.006.044-.008.063v0a1.838,1.838,0,0,0-.012.185c0,1.225,1.379,2.208,3.608,2.806a29.182,29.182,0,0,0,7.226.809,29.182,29.182,0,0,0,7.226-.809c1.853-.5,3.117-1.26,3.492-2.206a7.208,7.208,0,0,0,9.343-10.919l-8.909-8.909V6.876a4.316,4.316,0,0,0-4.309-4.309h-4.67c-.022-.063-.045-.125-.07-.186A3.722,3.722,0,0,0,31.168,0ZM31.168,1.935A1.871,1.871,0,0,1,33.014,3.1a2.246,2.246,0,0,1,.138.526c0,.021,0,.042.008.063a2.43,2.43,0,0,1-.145,1.146A1.871,1.871,0,0,1,31.169,6H12.687a1.871,1.871,0,0,1-1.846-1.164,2.331,2.331,0,0,1-.161-.867,2.369,2.369,0,0,1,.016-.278c0-.021.006-.042.008-.063a2.246,2.246,0,0,1,.138-.526,1.871,1.871,0,0,1,1.846-1.164ZM23.809,54.682l0-1.893a10.055,10.055,0,0,0,1.671.594,29.182,29.182,0,0,0,7.226.809,35.389,35.389,0,0,0,3.865-.207,24.307,24.307,0,0,0,2.791-.462L41.6,55.767v1.1c0,.237-.83.578-2.171.939a27.2,27.2,0,0,1-6.728.742,27.21,27.21,0,0,1-6.728-.742c-1.325-.356-2.151-.693-2.171-.929a.992.992,0,0,0,.013-.223l0-1.806q0-.04,0-.08c0-.029,0-.057,0-.085m15.152-5.39A15.065,15.065,0,0,0,45.677,42.2l5.717,5.717a5.271,5.271,0,0,1-7.454,7.454l-.682-.682-.011-.011L30.43,41.861a5.29,5.29,0,0,1,0-7.451l.007-.007a5.289,5.289,0,0,1,7.45,0l4.311,4.311.013.013,2,2a13.146,13.146,0,0,1-6.137,6.855.965.965,0,0,0,.894,1.71M33.99,36.659a.967.967,0,0,1,1.368-1.368l3.359,3.359a.967.967,0,0,1-1.368,1.368ZM37.712,51.88c-.429.071-.884.133-1.358.186a33.463,33.463,0,0,1-3.653.191,27.21,27.21,0,0,1-6.728-.742c-1.341-.36-2.171-.7-2.171-.939s.83-.578,2.171-.939A27.2,27.2,0,0,1,32.7,48.9c.484,0,.9.006,1.241.018q.4.015.846.041ZM23.8,56.906V56.9s0,.016,0,.008" transform="translate(-9994.309 -15460.228)" fill="#4e3495" fill-rule="evenodd"/>
      <path id="Path_77164" data-name="Path 77164" d="M114.359,111.885a1.969,1.969,0,0,0-1.4-.579h-3.737a.041.041,0,0,1-.029-.013.039.039,0,0,1-.013-.029v-3.737a1.978,1.978,0,0,0-1.977-1.977h-5.7a1.98,1.98,0,0,0-1.977,1.978v3.735a.046.046,0,0,1-.013.029.039.039,0,0,1-.029.013H95.747a1.978,1.978,0,0,0-1.977,1.977v5.7a1.978,1.978,0,0,0,1.977,1.977h3.737a.041.041,0,0,1,.029.013.039.039,0,0,1,.013.029v3.737a1.978,1.978,0,0,0,1.977,1.977h5.7a1.978,1.978,0,0,0,1.977-1.977v-3.737a.046.046,0,0,1,.013-.029.039.039,0,0,1,.029-.013h3.737a1.978,1.978,0,0,0,1.977-1.977v-5.7a1.971,1.971,0,0,0-.579-1.4m-1.355,7.1a.039.039,0,0,1-.013.029.041.041,0,0,1-.029.013h-3.737a1.978,1.978,0,0,0-1.977,1.977v3.737a.039.039,0,0,1-.013.029.041.041,0,0,1-.029.013h-5.7a.039.039,0,0,1-.029-.013.041.041,0,0,1-.013-.029v-3.737a1.978,1.978,0,0,0-1.977-1.977H95.747a.039.039,0,0,1-.029-.013.046.046,0,0,1-.013-.029v-5.7a.039.039,0,0,1,.013-.029.041.041,0,0,1,.029-.013h3.737a1.978,1.978,0,0,0,1.977-1.977v-3.737a.039.039,0,0,1,.013-.029.041.041,0,0,1,.029-.013h5.7a.046.046,0,0,1,.042.042v3.737a1.978,1.978,0,0,0,1.977,1.977h3.737a.039.039,0,0,1,.029.013.043.043,0,0,1,.013.029Z" transform="translate(-10076.736 -15553.01)" fill="#ef2a4c" fill-rule="evenodd"/>
    </g>
    <rect id="Rectangle_10374" data-name="Rectangle 10374" width="59.451" height="65.538" transform="translate(-9518.309 -14333.228)" fill="none"/>
  </g>
</svg>
