<svg xmlns="http://www.w3.org/2000/svg" width="102.383" height="75.04" viewBox="0 0 102.383 75.04">
  <g id="Group_118737" data-name="Group 118737" transform="translate(8963.548 14332.173)">
    <g id="Group_118625" data-name="Group 118625" transform="translate(-8968.406 -14349.263)" opacity="0.47">
      <path id="Path_2" data-name="Path 2" d="M1961.377,2087.041q-.755-.527-1.469-1.122c-3.852-3.219-5.823-8.276-9.134-12.051a61.429,61.429,0,0,0-10.941-10.019c-8.34-5.752-18.142-7.823-27.184-5.108-9.66,2.9-17.969,10.632-22.172,20.415a41.529,41.529,0,0,0-.345,31.241c3.6,8.988,10.857,17.494,19.614,20.665,6.663,2.413,13.711,1.6,20.328.195,9.159-1.944,17.818-3.969,27.454-2.783,5.946.732,11.437,2.093,17.141.337,5.3-1.633,9.761-6.274,12.338-11.391a24.951,24.951,0,0,0,1.967-16.83c-1.045-4.371-3.78-8.858-7.838-10.075-2.688-.806-5.418-.047-8.136.075A19.079,19.079,0,0,1,1961.377,2087.041Z" transform="translate(-1882.394 -2040.471)" fill="#84a4fc" opacity="0.11"/>
      <path id="Path_3" data-name="Path 3" d="M1913.045,2084.643q.689-.484,1.341-1.031c3.516-2.957,5.314-7.6,8.336-11.069a56.194,56.194,0,0,1,9.987-9.2c7.612-5.284,16.56-7.187,24.813-4.692,8.817,2.665,16.4,9.766,20.237,18.753a38.376,38.376,0,0,1,.315,28.7c-3.285,8.256-9.909,16.071-17.9,18.984-6.082,2.216-12.514,1.468-18.555.178-8.36-1.786-16.264-3.646-25.059-2.557-5.427.672-10.439,1.923-15.646.31-4.839-1.5-8.91-5.763-11.262-10.464a23.054,23.054,0,0,1-1.8-15.46c.954-4.015,3.449-8.137,7.154-9.256,2.454-.741,4.946-.043,7.427.069A17.332,17.332,0,0,0,1913.045,2084.643Z" transform="translate(-1877.929 -2037.418)" fill="#e5ebfb" opacity="0.4" style="mix-blend-mode: multiply;isolation: isolate"/>
    </g>
    <g id="Group_118626" data-name="Group 118626" transform="translate(-8943.548 -14332.173)">
      <path id="Path_77158" data-name="Path 77158" d="M81.085,28.214l-11.16-11.16a2.108,2.108,0,0,0-2.982,0l-11.16,11.16-11.16-11.16a2.108,2.108,0,0,0-2.982,0l-.618.618-1.363-1.363A1.054,1.054,0,0,0,38.915,16h0a7.711,7.711,0,0,0-5.625,2.5A10.965,10.965,0,0,0,30.5,24.26a1.054,1.054,0,0,0,.294.919l1.363,1.363-.618.618a2.111,2.111,0,0,0,0,2.982L41.4,40l1.491-1.491-9.863-9.863L43.132,18.545l11.16,11.16L19.939,64.059a2.111,2.111,0,0,0,0,2.982L31.1,78.2a2.108,2.108,0,0,0,2.982,0l47-47A2.111,2.111,0,0,0,81.085,28.214Zm-48.408-4.13c.742-3.368,3.051-5.732,5.82-5.958l1.037,1.037-5.889,5.889Zm13,17.218L55.783,31.2l11.16,11.16L56.838,52.462Zm9.669,12.651L45.241,64.058,34.081,52.9,44.187,42.793ZM32.59,76.709,21.43,65.549l11.16-11.16,11.16,11.16ZM68.434,40.865l-11.16-11.16,11.16-11.16,11.16,11.16Z" transform="translate(-19.323 -16)" fill="#4e3495"/>
      <path id="Path_77159" data-name="Path 77159" d="M275.163,160A3.166,3.166,0,0,0,272,163.163v6.325a3.163,3.163,0,0,0,6.326,0v-6.325A3.166,3.166,0,0,0,275.163,160Zm0,2.109a1.055,1.055,0,0,1,1.054,1.054v2.108h-2.108v-2.108A1.055,1.055,0,0,1,275.163,162.109Zm0,8.434a1.055,1.055,0,0,1-1.054-1.054V167.38h2.108v2.108A1.055,1.055,0,0,1,275.163,170.542Z" transform="translate(-238.702 -141.024)" fill="#4e3495"/>
      <path id="Path_77160" data-name="Path 77160" d="M344,99.163a3.166,3.166,0,0,0,3.163,3.163h6.325a3.163,3.163,0,1,0,0-6.325h-6.325A3.166,3.166,0,0,0,344,99.163Zm2.109,0a1.055,1.055,0,0,1,1.054-1.054h2.108v2.108h-2.108A1.055,1.055,0,0,1,346.109,99.163Zm8.434,0a1.055,1.055,0,0,1-1.054,1.054H351.38V98.109h2.108A1.055,1.055,0,0,1,354.542,99.163Z" transform="translate(-301.214 -85.458)" fill="#ef2a4c"/>
      <path id="Path_77161" data-name="Path 77161" d="M171.163,286.326h6.325a3.163,3.163,0,0,0,0-6.326h-6.325a3.163,3.163,0,0,0,0,6.326Zm7.38-3.163a1.055,1.055,0,0,1-1.054,1.054H175.38v-2.109h2.109A1.056,1.056,0,0,1,178.542,283.163Zm-7.38-1.054h2.108v2.109h-2.108a1.054,1.054,0,0,1,0-2.109Z" transform="translate(-148.407 -245.21)" fill="#ef2a4c"/>
      <path id="Path_77162" data-name="Path 77162" d="M99.163,344A3.166,3.166,0,0,0,96,347.163v6.325a3.163,3.163,0,1,0,6.325,0v-6.325A3.166,3.166,0,0,0,99.163,344Zm0,2.109a1.055,1.055,0,0,1,1.054,1.054v2.108H98.109v-2.108A1.055,1.055,0,0,1,99.163,346.109Zm0,8.434a1.055,1.055,0,0,1-1.054-1.054V351.38h2.108v2.108A1.055,1.055,0,0,1,99.163,354.542Z" transform="translate(-85.895 -300.776)" fill="#4e3495"/>
      <rect id="Rectangle_10367" data-name="Rectangle 10367" width="2.108" height="6.554" transform="translate(20.539 16.142) rotate(-45)" fill="#4e3495"/>
      <rect id="Rectangle_10368" data-name="Rectangle 10368" width="2.108" height="2.982" transform="matrix(0.707, -0.707, 0.707, 0.707, 16.739, 12.342)" fill="#4e3495"/>
    </g>
  </g>
</svg>
