<svg xmlns="http://www.w3.org/2000/svg" width="102.383" height="75.04" viewBox="0 0 102.383 75.04">
  <g id="Group_118736" data-name="Group 118736" transform="translate(8963.547 14333)">
    <g id="Group_118621" data-name="Group 118621" transform="translate(-8963.548 -14332.173)" opacity="0.47">
      <path id="Path_2" data-name="Path 2" d="M1961.377,2086.716q-.755-.521-1.469-1.109c-3.852-3.183-5.823-8.185-9.134-11.918a61.186,61.186,0,0,0-10.941-9.908c-8.34-5.689-18.142-7.737-27.184-5.052-9.66,2.869-17.969,10.514-22.172,20.19a40.652,40.652,0,0,0-.345,30.9c3.6,8.889,10.857,17.3,19.614,20.437,6.663,2.386,13.711,1.581,20.328.193,9.159-1.923,17.818-3.926,27.454-2.753,5.946.724,11.437,2.07,17.141.333,5.3-1.615,9.761-6.2,12.338-11.265a24.43,24.43,0,0,0,1.967-16.644c-1.045-4.323-3.78-8.76-7.838-9.965-2.688-.8-5.418-.046-8.136.074A19.227,19.227,0,0,1,1961.377,2086.716Z" transform="translate(-1887.252 -2057.561)" fill="#84a4fc" opacity="0.11"/>
      <path id="Path_3" data-name="Path 3" d="M1913.045,2084.318q.689-.478,1.341-1.019c3.516-2.921,5.314-7.511,8.336-10.937a55.945,55.945,0,0,1,9.987-9.093c7.612-5.221,16.56-7.1,24.813-4.636,8.817,2.634,16.4,9.649,20.237,18.528a37.494,37.494,0,0,1,.315,28.355c-3.285,8.157-9.909,15.878-17.9,18.756-6.082,2.189-12.514,1.451-18.555.176-8.36-1.764-16.264-3.6-25.059-2.526-5.427.664-10.439,1.9-15.646.306-4.839-1.482-8.91-5.694-11.262-10.338a22.531,22.531,0,0,1-1.8-15.275c.954-3.967,3.449-8.04,7.154-9.145,2.454-.732,4.946-.042,7.427.068A17.48,17.48,0,0,0,1913.045,2084.318Z" transform="translate(-1882.787 -2054.508)" fill="#e5ebfb" opacity="0.4" style="mix-blend-mode: multiply;isolation: isolate"/>
    </g>
    <g id="Group_118622" data-name="Group 118622" transform="translate(-8940.548 -14323.678)">
      <path id="Path_77141" data-name="Path 77141" d="M10.4,0A1.153,1.153,0,0,0,9.242,1.155V2.311H4.621A4.639,4.639,0,0,0,0,6.932V41.589A4.639,4.639,0,0,0,4.621,46.21h26.1a9.231,9.231,0,0,0,17.121,0h2.992a4.742,4.742,0,0,0,4.621-4.621V6.932a4.639,4.639,0,0,0-4.621-4.621H46.21V1.155a1.155,1.155,0,0,0-2.311,0V2.311H34.658V1.155a1.155,1.155,0,0,0-2.311,0V2.311H23.105V1.155a1.155,1.155,0,1,0-2.311,0V2.311H11.553V1.155A1.153,1.153,0,0,0,10.4,0M4.621,4.621H9.242V5.776a1.155,1.155,0,0,0,2.311,0V4.621h9.242V5.776a1.155,1.155,0,1,0,2.311,0V4.621h9.242V5.776a1.155,1.155,0,0,0,2.311,0V4.621H43.9V5.776a1.155,1.155,0,0,0,2.311,0V4.621h4.621a2.294,2.294,0,0,1,2.311,2.311V41.589A2.294,2.294,0,0,1,50.831,43.9h-2.39a9.079,9.079,0,0,0,.08-1.155A9.242,9.242,0,1,0,30.115,43.9H4.621a2.293,2.293,0,0,1-2.311-2.311V6.932A2.293,2.293,0,0,1,4.621,4.621m3.506,6.932a1.156,1.156,0,1,0,0,2.311h4.54a1.156,1.156,0,1,0,0-2.311Zm11.553,0a1.156,1.156,0,1,0,0,2.311h4.54a1.156,1.156,0,1,0,0-2.311Zm11.553,0a1.156,1.156,0,1,0,0,2.311h4.54a1.156,1.156,0,1,0,0-2.311Zm11.553,0a1.156,1.156,0,1,0,0,2.311h4.54a1.156,1.156,0,1,0,0-2.311ZM8.127,19.639a1.156,1.156,0,1,0,0,2.311h4.54a1.156,1.156,0,1,0,0-2.311Zm11.553,0a1.156,1.156,0,1,0,0,2.311h4.54a1.156,1.156,0,1,0,0-2.311Zm11.553,0a1.156,1.156,0,1,0,0,2.311h4.54a1.173,1.173,0,0,0,1.2-1.155,1.154,1.154,0,0,0-.729-1.065,1.248,1.248,0,0,0-.467-.09Zm11.553,0a1.156,1.156,0,1,0,0,2.311h4.54a1.156,1.156,0,1,0,0-2.311ZM8.127,27.726a1.156,1.156,0,1,0,0,2.311h4.54a1.156,1.156,0,1,0,0-2.311Zm11.553,0a1.156,1.156,0,1,0,0,2.311h4.54a1.156,1.156,0,1,0,0-2.311Zm11.553,0a1.156,1.156,0,1,0,0,2.311h4.54a1.156,1.156,0,1,0,0-2.311Zm11.553,0a1.156,1.156,0,1,0,0,2.311h4.54a1.156,1.156,0,1,0,0-2.311ZM8.127,35.813a1.156,1.156,0,1,0,0,2.311h4.54a1.156,1.156,0,1,0,0-2.311Zm31.151,0a6.932,6.932,0,1,1-6.932,6.932,6.914,6.914,0,0,1,6.932-6.932m-19.6,0a1.156,1.156,0,1,0,0,2.311h4.54a1.156,1.156,0,1,0,0-2.311Z" fill="#4e3495" fill-rule="evenodd"/>
      <path id="Path_77142" data-name="Path 77142" d="M37.509,34.5a1.151,1.151,0,0,0-.817.338l-3.224,3.217-1.5-1.48a1.146,1.146,0,0,0-1.631,0,1.159,1.159,0,0,0,0,1.636l2.311,2.3a1.149,1.149,0,0,0,1.631,0l4.046-4.036a1.158,1.158,0,0,0-.817-1.977" transform="translate(4.657 5.356)" fill="#ef2a4c" fill-rule="evenodd"/>
    </g>
    <rect id="Rectangle_10375" data-name="Rectangle 10375" width="59" height="55" transform="translate(-8941.548 -14333)" fill="none"/>
  </g>
</svg>
