<svg xmlns="http://www.w3.org/2000/svg" width="102.383" height="75.04" viewBox="0 0 102.383 75.04">
  <g id="Group_118738" data-name="Group 118738" transform="translate(-139.5 -347.935)">
    <g id="Group_118631" data-name="Group 118631" transform="translate(139.5 352.99)" opacity="0.47">
      <path id="Path_2" data-name="Path 2" d="M1961.377,2085.055q-.755-.491-1.469-1.046c-3.852-3-5.823-7.719-9.134-11.239a60.088,60.088,0,0,0-10.941-9.344c-8.34-5.365-18.142-7.3-27.184-4.764a35.375,35.375,0,0,0-22.172,19.039,36.321,36.321,0,0,0-.345,29.136c3.6,8.382,10.857,16.316,19.614,19.273,6.663,2.25,13.711,1.491,20.328.182,9.159-1.813,17.818-3.7,27.454-2.6,5.946.683,11.437,1.952,17.141.314,5.3-1.523,9.761-5.851,12.338-10.623a21.863,21.863,0,0,0,1.967-15.7c-1.045-4.077-3.78-8.261-7.838-9.4-2.688-.752-5.418-.043-8.136.07A20.063,20.063,0,0,1,1961.377,2085.055Z" transform="translate(-1887.252 -2057.561)" fill="#84a4fc" opacity="0.11"/>
      <path id="Path_3" data-name="Path 3" d="M1913.045,2082.657q.689-.448,1.341-.956c3.516-2.74,5.314-7.045,8.336-10.258a54.834,54.834,0,0,1,9.987-8.529c7.612-4.9,16.56-6.659,24.813-4.348a32.289,32.289,0,0,1,20.237,17.378,33.151,33.151,0,0,1,.315,26.594c-3.285,7.65-9.909,14.892-17.9,17.592-6.082,2.053-12.514,1.361-18.555.165-8.36-1.655-16.264-3.379-25.059-2.369-5.427.623-10.439,1.782-15.646.287-4.839-1.39-8.91-5.341-11.262-9.7a19.956,19.956,0,0,1-1.8-14.326c.954-3.721,3.449-7.541,7.154-8.577,2.454-.687,4.946-.04,7.427.063A18.307,18.307,0,0,0,1913.045,2082.657Z" transform="translate(-1882.787 -2054.508)" fill="#e5ebfb" opacity="0.4" style="mix-blend-mode: multiply;isolation: isolate"/>
    </g>
    <g id="Group_118632" data-name="Group 118632" transform="translate(162.501 347.935)">
      <path id="Path_77157" data-name="Path 77157" d="M54.384,9.774l.588-3.467a1.3,1.3,0,1,0-2.567-.439l-.588,3.475A24.242,24.242,0,0,0,25.2,29.269a1.3,1.3,0,0,0,2.128,1.213,8.624,8.624,0,0,1,7.061-1.942h0a8.668,8.668,0,0,1,6.02,4.167h0a.878.878,0,0,0,.1.134l.067.082.134.112.074.06a.744.744,0,0,0,.208.126h.067a1.407,1.407,0,0,0,.268.074,1.057,1.057,0,0,0,.216,0h0a1.31,1.31,0,0,0,.379-.067H42a1.1,1.1,0,0,0,.327-.186h0a8.646,8.646,0,0,1,5.8-2.054L44.607,51.754a1.272,1.272,0,0,0,.089.744c-1.176-.067-2.344-.1-3.527-.1a63.5,63.5,0,0,0-22.545,4.1,1.3,1.3,0,1,0,.915,2.433,61.4,61.4,0,0,1,47.3,1.7,1.3,1.3,0,1,0,1.094-2.366A63.358,63.358,0,0,0,47,52.67a1.384,1.384,0,0,0,.179-.461L50.7,31.434a8.691,8.691,0,0,1,4.762,3.847h0l.1.134.067.074a1.02,1.02,0,0,0,.134.119l.067.052a1.489,1.489,0,0,0,.186.1h.052a1.228,1.228,0,0,0,.268.082h.223a1.369,1.369,0,0,0,.387-.074h.082a1.428,1.428,0,0,0,.327-.186h0a8.654,8.654,0,0,1,13.081,2.232,1.369,1.369,0,0,0,1.429.61,1.324,1.324,0,0,0,1.049-1.071A24.249,24.249,0,0,0,54.384,9.774Zm-19.562,16.2a11.228,11.228,0,0,0-6.317.744A21.675,21.675,0,0,1,48.328,11.835c-2.515,2.359-5.514,7.247-7.545,17.173a11.235,11.235,0,0,0-5.96-3.036Zm15.053,2.552a11.325,11.325,0,0,0-6.511.848c3.066-14.814,8.185-16.935,9.3-17.218.99.64,5.082,4.278,3.073,19.346a11.258,11.258,0,0,0-5.863-2.976Zm20.767,5.357a11.273,11.273,0,0,0-5.722-2.8,11.5,11.5,0,0,0-1.89-.156A11.161,11.161,0,0,0,58.3,31.977c1.362-10.052.141-15.625-1.444-18.728A21.675,21.675,0,0,1,70.642,33.882Z" transform="translate(-17.706 -4.785)" fill="#4e3495"/>
      <circle id="Ellipse_1083" data-name="Ellipse 1083" cx="1.451" cy="1.451" r="1.451" transform="translate(18.749 64.402) rotate(-41.43)" fill="#ef2a4c"/>
      <circle id="Ellipse_1084" data-name="Ellipse 1084" cx="1.451" cy="1.451" r="1.451" transform="translate(28.575 54.715)" fill="#ef2a4c"/>
      <circle id="Ellipse_1085" data-name="Ellipse 1085" cx="1.451" cy="1.451" r="1.451" transform="translate(9.207 56.411)" fill="#ef2a4c"/>
      <circle id="Ellipse_1086" data-name="Ellipse 1086" cx="1.451" cy="1.451" r="1.451" transform="translate(38.438 61.05) rotate(-41.43)" fill="#ef2a4c"/>
    </g>
  </g>
</svg>
