<svg xmlns="http://www.w3.org/2000/svg" width="43.017" height="40.035" viewBox="0 0 43.017 40.035">
  <path id="Path_77199" data-name="Path 77199" d="M61.786,39.081l-6.63-6.173V24.323a2.675,2.675,0,0,0-2.672-2.672H49.132a2.605,2.605,0,0,0-2.673,2.526v.61L42.9,21.474a2.9,2.9,0,0,0-3.806,0L20.207,39.082A1.6,1.6,0,0,0,21.36,42.01h3.219V58.123A2.675,2.675,0,0,0,27.251,60.8h7.288a2.675,2.675,0,0,0,2.672-2.673V49.437a.574.574,0,0,1,.567-.566h6.207a.573.573,0,0,1,.566.566v8.686A2.676,2.676,0,0,0,47.222,60.8h7.286a2.675,2.675,0,0,0,2.673-2.673V42.009h3.454a1.6,1.6,0,0,0,1.151-2.928ZM49.131,23.757h3.352a.573.573,0,0,1,.566.566v6.618l-4.485-4.188V24.177A.521.521,0,0,1,49.131,23.757Zm7,16.145a1.052,1.052,0,0,0-1.053,1.053V58.122a.574.574,0,0,1-.567.567H47.221a.574.574,0,0,1-.566-.567V49.437a2.676,2.676,0,0,0-2.672-2.672H37.775A2.676,2.676,0,0,0,35.1,49.437v8.686a.573.573,0,0,1-.565.567H27.251a.573.573,0,0,1-.565-.567V40.956A1.053,1.053,0,0,0,25.632,39.9H22.415L40.531,23.016a.743.743,0,0,1,.933,0L59.577,39.9h-3.45Z" transform="translate(-19.489 -20.761)" fill="#7a9dfd"/>
</svg>
