<svg xmlns="http://www.w3.org/2000/svg" xmlns:xlink="http://www.w3.org/1999/xlink" width="91" height="91" viewBox="0 0 91 91">
  <defs>
    <clipPath id="clip-path">
      <rect id="Rectangle_10361" data-name="Rectangle 10361" width="51.969" height="39.176" transform="translate(0 14)" fill="#7a9dfd"/>
    </clipPath>
  </defs>
  <g id="Group_118685" data-name="Group 118685" transform="translate(14322 16008.5)">
    <path id="System_Background_Primary_Dark_Base" data-name="System Background Primary Dark Base" d="M15,0H75A15,15,0,0,1,90,15V75A15,15,0,0,1,75,90H15A15,15,0,0,1,0,75V15A15,15,0,0,1,15,0Z" transform="translate(-14321.5 -16008)" fill="none" stroke="#dadada" stroke-width="1"/>
    <g id="Group_118683" data-name="Group 118683" transform="translate(-14303 -15995)">
      <g id="Group_118515" data-name="Group 118515" clip-path="url(#clip-path)">
        <path id="Path_77096" data-name="Path 77096" d="M0,57.762a9.161,9.161,0,0,1,.79-1.517,2.879,2.879,0,0,1,3.221-.914,2.975,2.975,0,0,1,2.041,2.726c.028,1.009,0,2.02.019,3.03a.966.966,0,0,0,.2.63c2.273,2.134,4.565,4.25,6.9,6.415.068-.2.12-.343.168-.488a6.778,6.778,0,0,1,6.373-4.677q10.634-.033,21.268,0a6.815,6.815,0,0,1,6.643,6.493c.007.161.016.321.022.431a13.224,13.224,0,0,1,1.67.692,4.943,4.943,0,0,1,2.63,4.435c.037,4.455.02,8.911.009,13.366A3.109,3.109,0,0,1,48.9,91.535a3.026,3.026,0,0,1-3-3.16c-.005-1.569,0-3.139,0-4.708,0-.715-.072-.79-.763-.79H6.82c-.672,0-.757.083-.757.741,0,1.623.016,3.247-.007,4.87A3.135,3.135,0,0,1,3.4,91.524a2.994,2.994,0,0,1-3.285-2.14A1.771,1.771,0,0,0,0,89.154V57.762m47.63,14.05v.534c0,1.407,0,2.814,0,4.221,0,.815-.3,1.112-1.106,1.112q-16.208,0-32.416,0c-.817,0-1.114-.294-1.115-1.1,0-1.894-.01-3.788.007-5.682a1.121,1.121,0,0,0-.392-.935c-2.436-2.228-4.843-4.487-7.283-6.71a2.742,2.742,0,0,1-1-2.278c.042-.936.024-1.876,0-2.813a1.289,1.289,0,0,0-1.078-1.246,1.279,1.279,0,0,0-1.374.826,2.64,2.64,0,0,0-.131.9q-.01,14.747-.005,29.493c0,.162-.007.326.009.487a1.314,1.314,0,0,0,.988,1.157A1.212,1.212,0,0,0,4.1,89.139a2.184,2.184,0,0,0,.223-.926c.022-1.569.007-3.139.011-4.708a2.182,2.182,0,0,1,2.359-2.36q19.293,0,38.585,0a2.181,2.181,0,0,1,2.354,2.366c0,1.623,0,3.247,0,4.87A1.3,1.3,0,0,0,48.875,89.8,1.362,1.362,0,0,0,50.22,88.4c.011-4.492.022-8.983-.007-13.475a3.26,3.26,0,0,0-2.583-3.109M45.9,75.926c0-2.045.01-4.045,0-6.043a5.081,5.081,0,0,0-5.215-5.19q-10.361-.012-20.723,0a5.086,5.086,0,0,0-5.234,5.225c-.008,1.84,0,3.679,0,5.519,0,.157.016.313.025.489Z" transform="translate(0 -39.576)" fill="#7a9dfd" stroke="#7a9dfd" stroke-width="0.3"/>
        <path id="Path_77098" data-name="Path 77098" d="M27.578,59.476a4.329,4.329,0,1,1,4.335,4.336,4.333,4.333,0,0,1-4.335-4.336m1.735-.025a2.6,2.6,0,1,0,2.655-2.561,2.608,2.608,0,0,0-2.655,2.561" transform="translate(-19.783 -39.567)" fill="#7a9dfd" stroke="#7a9dfd" stroke-width="0.2"/>
      </g>
    </g>
  </g>
</svg>
