<svg id="Group_117770" data-name="Group 117770" xmlns="http://www.w3.org/2000/svg" xmlns:xlink="http://www.w3.org/1999/xlink" width="64.185" height="64.185" viewBox="0 0 64.185 64.185">
  <defs>
    <clipPath id="clip-path">
      <circle id="Ellipse_1016" data-name="Ellipse 1016" cx="32.092" cy="32.092" r="32.092" fill="#e5ebfb"/>
    </clipPath>
    <clipPath id="clip-path-2">
      <rect id="Rectangle_4542" data-name="Rectangle 4542" width="49.208" height="49.208" transform="translate(0 0)" fill="#4e3495"/>
    </clipPath>
  </defs>
  <path id="Path_77038" data-name="Path 77038" d="M30.837,0A30.837,30.837,0,1,0,53.685,10.127,30.837,30.837,0,0,0,30.837,0Z" transform="translate(2.51 1.51)" fill="#fff"/>
  <path id="Path_28961" data-name="Path 28961" d="M35.149,70.908a56.924,56.924,0,0,1-7.088-4.869,28.669,28.669,0,0,1-6.285-7.64,23.947,23.947,0,0,1-3.037-13.214c.2-2.768.447-6.361,2.974-9.592,3.407-4.356,9.648-6.4,10.105-6.513a3.015,3.015,0,0,0,.586-.213,2.246,2.246,0,0,0,.854-.631,2.219,2.219,0,0,0,.306-1.406c.008-.68-.125-.808-.11-1.208a2.789,2.789,0,0,1,.98-1.783c.6-.6,3.244-2.58,9.211-2.35a26.917,26.917,0,0,1,9.621,2.234c5.932,2.568,12.122,6.109,14.963,11.87,3.323,6.74,4.209,16.1,2.454,23.661C68.629,68.109,60.6,72.765,51.947,73.541,46.657,74.014,35.491,71.065,35.149,70.908Z" transform="translate(-12.182 -15.364)" fill="#e5ebfb"/>
  <path id="Path_77031" data-name="Path 77031" d="M1231.718,469.913a.618.618,0,0,0-.538.483c-.087.27-.164.543-.242.816a2.529,2.529,0,0,1-1.816,1.89c-.393.11-.7.315-.689.755.008.4.284.61.659.711a2.714,2.714,0,0,1,1.927,2.122,6.63,6.63,0,0,0,.2.691.7.7,0,0,0,1.255,0,3.606,3.606,0,0,0,.155-.568,2.753,2.753,0,0,1,1.914-2.212c.369-.121.706-.28.71-.742.006-.5-.346-.656-.747-.774a2.82,2.82,0,0,1-1.9-2.377C1232.514,470.31,1232.39,469.93,1231.718,469.913Zm.131,2.765c.137.192.217.322.315.436.221.256.643.52.625.753-.02.264-.469.472-.664.752-.237.34-.314.23-.586,0-.64-.55-.695-1,0-1.519A2.034,2.034,0,0,0,1231.849,472.677Z" transform="translate(-1215.892 -458.623)" fill="#f02a4c"/>
  <path id="Path_77030" data-name="Path 77030" d="M1231.718,469.913a.618.618,0,0,0-.538.483c-.087.27-.164.543-.242.816a2.529,2.529,0,0,1-1.816,1.89c-.393.11-.7.315-.689.755.008.4.284.61.659.711a2.714,2.714,0,0,1,1.927,2.122,6.63,6.63,0,0,0,.2.691.7.7,0,0,0,1.255,0,3.606,3.606,0,0,0,.155-.568,2.753,2.753,0,0,1,1.914-2.212c.369-.121.706-.28.71-.742.006-.5-.346-.656-.747-.774a2.82,2.82,0,0,1-1.9-2.377C1232.514,470.31,1232.39,469.93,1231.718,469.913Zm.131,2.765c.137.192.217.322.315.436.221.256.643.52.625.753-.02.264-.469.472-.664.752-.237.34-.314.23-.586,0-.64-.55-.695-1,0-1.519A2.034,2.034,0,0,0,1231.849,472.677Z" transform="translate(-1174.952 -439.225)" fill="#f02a4c"/>
  <g id="Group_118437" data-name="Group 118437">
    <path id="Path_77059" data-name="Path 77059" d="M-11288.029-15187.539l-10.152,10.647-21.23-20.611s-1.431-5.6.947-8.243,8.563-2.339,8.563-2.339l21.872,20.546" transform="translate(11346.998 15236.131)" fill="#fff"/>
    <path id="Path_77060" data-name="Path 77060" d="M68.751,645.543l4.915-5.719s1.006-5.91-1.707-8.368-9.144-1.466-9.144-1.466L42.89,650.681l1.153,7.491,4.647,2.626,6.167-1.56Z" transform="translate(-30.235 -616.822)" fill="#fff"/>
    <g id="Mask_Group_66542" data-name="Mask Group 66542" clip-path="url(#clip-path)">
      <g id="Mask_Group_117658" data-name="Mask Group 117658" transform="translate(10.697 11.767)" clip-path="url(#clip-path-2)">
        <path id="Path_77007" data-name="Path 77007" d="M49.131,0a16.012,16.012,0,0,0-2.71.825,9.9,9.9,0,0,0-2.509,1.77C38.345,8.1,32.82,13.653,27.282,19.19a8.338,8.338,0,0,0-2.492,4.967.587.587,0,0,1-.08.164v1.812a19,19,0,0,0,.741,2.489,8.336,8.336,0,0,0,13.388,2.691c.43-.4.841-.824,1.239-1.256a.707.707,0,0,0,.036-1.063.741.741,0,0,0-1.064.071A18.554,18.554,0,0,1,36.574,31.2a6.888,6.888,0,0,1-10.351-5.02,6.522,6.522,0,0,1,1.754-5.622c2.393-2.505,4.857-4.943,7.292-7.408a1.68,1.68,0,0,1,.193-.131c.427.448.856.913,1.3,1.361.394.4.823.443,1.132.149.329-.314.287-.746-.133-1.165-.438-.437-.889-.861-1.356-1.311.115-.133.189-.231.275-.316,2.766-2.741,5.519-5.5,8.3-8.218a6.94,6.94,0,0,1,10.241,9.357c-.427.49-.908.933-1.36,1.4-.382.4-.42.773-.121,1.094s.724.295,1.132-.085a10.439,10.439,0,0,0,3.051-4.357A8.394,8.394,0,0,0,51.117.092,2.913,2.913,0,0,1,50.753,0H49.131" transform="translate(-24.19 -0.15)" fill="#4e3495"/>
        <path id="Path_77008" data-name="Path 77008" d="M3.593,27.164C2.869,26.436,2.151,25.717,1.436,25A.749.749,0,0,0,.5,24.769a.711.711,0,0,0-.1,1.2c.619.64,1.254,1.264,1.886,1.89.135.134.289.249.434.372-.257.518-.526.968-.711,1.45A7.985,7.985,0,0,0,3.689,38.72Q12.059,47.276,20.6,55.666A8.368,8.368,0,1,0,32.431,43.833Q24.09,35.416,15.67,27.077a8.311,8.311,0,0,0-11.836-.11c-.069.064-.146.119-.242.2m10.692,20.3c.205-.168.351-.268.474-.39q2.8-2.8,5.6-5.6a2.729,2.729,0,0,0,.347-.391.7.7,0,0,0-.938-.985,2.638,2.638,0,0,0-.429.374Q16.519,43.288,13.7,46.1c-.12.119-.245.232-.362.342a.844.844,0,0,1-.11-.076c-2.84-2.87-5.722-5.7-8.507-8.622a6.933,6.933,0,1,1,10.047-9.557q4.038,4.056,8.058,8.128c.1.1.192.207.306.33-.119.128-.222.243-.331.354-.39.4-.8.78-1.166,1.193a.665.665,0,0,0,0,.95.672.672,0,0,0,.982.045,5.5,5.5,0,0,0,.449-.426c.367-.364.732-.73,1.23-1.226,2.457,2.52,4.869,4.986,7.271,7.461A6.5,6.5,0,0,1,33.48,49.3a6.632,6.632,0,0,1-3.708,6.624,6.326,6.326,0,0,1-7.493-.724C19.518,52.8,17,50.114,14.285,47.463" transform="translate(14.423 -9.493)" fill="#4e3495"/>
      </g>
    </g>
  </g>
</svg>
