<svg xmlns="http://www.w3.org/2000/svg" width="35.843" height="35.843" viewBox="0 0 35.843 35.843">
  <g id="noun-arrow-3134209" transform="translate(35.843 35.843) rotate(180)">
    <path id="Path_77114" data-name="Path 77114" d="M17.921,0h0A17.921,17.921,0,0,0,0,17.921H0A17.921,17.921,0,0,0,17.921,35.843h0A17.921,17.921,0,0,0,35.843,17.921h0A17.921,17.921,0,0,0,17.921,0Zm8.961,17.957A1.434,1.434,0,0,1,26.459,19l-5.9,5.882a1.443,1.443,0,0,1-2.043-2.039l3.455-3.459H10.394a1.434,1.434,0,1,1,0-2.867H22l-3.488-3.488a1.445,1.445,0,0,1,2.043-2.043l5.9,5.882a1.434,1.434,0,0,1,.423,1.022v.072Z" fill="#ef2a4c"/>
  </g>
</svg>
