<svg xmlns="http://www.w3.org/2000/svg" xmlns:xlink="http://www.w3.org/1999/xlink" width="63.054" height="63.054" viewBox="0 0 63.054 63.054">
  <defs>
    <clipPath id="clip-path">
      <circle id="Ellipse_753" data-name="Ellipse 753" cx="31.527" cy="31.527" r="31.527" fill="none" stroke="#707070" stroke-width="1"/>
    </clipPath>
    <clipPath id="clip-path-2">
      <rect id="Rectangle_2363" data-name="Rectangle 2363" width="59.843" height="62.649" rx="29.922" fill="#fff"/>
    </clipPath>
  </defs>
  <g id="Group_117650" data-name="Group 117650" transform="translate(0.146 0.001)">
    <path id="Path_77057" data-name="Path 77057" d="M31.45,0A31.45,31.45,0,1,1,0,31.45,31.45,31.45,0,0,1,31.45,0Z" transform="translate(0.007 0)" fill="#fff"/>
    <g id="Mask_Group_1457" data-name="Mask Group 1457" transform="translate(-0.146 -0.001)" clip-path="url(#clip-path)">
      <g id="Group_25141" data-name="Group 25141" transform="translate(2.001 -0.712)">
        <g id="Group_16621" data-name="Group 16621" transform="translate(0)">
          <g id="Mask_Group_1374" data-name="Mask Group 1374" clip-path="url(#clip-path-2)">
            <path id="Path_19467" data-name="Path 19467" d="M-13724.452-647.04c-5.586,5.586-17.066,15.329-10.014,30.714s4.61,3.538,4.61,3.538l12.594-.445,11.4-4.042v-2.748l-3.573-4.213-.458-1.174s-.732-1.024-1.009-1.116-2.467-1.557-2.467-1.557V-632.2h3.476l-.607-6.639,2.515-5.541,4.783-1.8,7.395.773s-1.351-4.282-7.395-5.747S-13718.867-652.627-13724.452-647.04Z" transform="translate(13738.552 656.818)" fill="#e5ebfb"/>
            <g id="Group_16588" data-name="Group 16588" transform="translate(18.087 7.754)">
              <path id="Path_19458" data-name="Path 19458" d="M1267.884,384.97a3.924,3.924,0,0,0-2.834-3.079c-2.634-.795-5.273-1.572-7.9-2.375a.719.719,0,0,0-.863.244c-2.23,2.509-4.474,2.511-6.711,5.015-.619.692-.864.707-1.485.015-2.255-2.515-4.51-2.535-6.749-5.064a.682.682,0,0,0-.836-.252c-2.469.767-6.944,2.127-7.331,2.417-.676.293-2.023-.694,0-1.31,3.4-1.037,5.9-1.965,9.3-2.988.342-.1.557-.23.476-.623a.611.611,0,0,1,0-.124,14.8,14.8,0,0,0-.03-2.482c-.144-.832-1.078-1.1-1.584-1.708a10.345,10.345,0,0,1-2.168-3.863c-.138-.5-.323-.673-.86-.673a3.289,3.289,0,0,1-3.192-2.7,3.349,3.349,0,0,1,2.056-3.713,3,3,0,0,1,1.153-.218c.337.005.4-.128.4-.437-.015-1.492-.009-2.985-.005-4.477a8.254,8.254,0,0,1,8.141-8.507,23.186,23.186,0,0,1,5.27.164,8.344,8.344,0,0,1,3.365,1.516.817.817,0,0,1,.337,1.161.97.97,0,0,1-1.137-.18,5.71,5.71,0,0,0-2.8-1.263,20.43,20.43,0,0,0-6.125-.011c-3.564.6-5.8,3.538-5.819,7.282,0,.524.1.71.669.7,1.946-.04,3.894-.015,5.84-.015,3.48,0,6.96-.009,10.439.011.484,0,.655-.117.626-.618a12.088,12.088,0,0,0-.152-1.914.763.763,0,0,1,.38-.95c.592-.041.781.319.87.828a30.274,30.274,0,0,1,.14,4.405c.016.58.031,1.163-.007,1.741-.028.429.121.544.539.58a3.308,3.308,0,0,1-.057,6.608c-.608.006-.771.226-.928.743a9.629,9.629,0,0,1-3.411,4.918.833.833,0,0,0-.382.768,22.28,22.28,0,0,1,0,2.238c-.032.5.121.7.61.842,3.334.967,6.653,1.985,9.984,2.96a5.3,5.3,0,0,1,4.068,4.573C1269.24,385.557,1268.008,385.492,1267.884,384.97Zm-19-18.464c-1.947,0-3.894.012-5.84-.01-.41,0-.516.111-.51.514.024,1.532.021,3.065,0,4.6a1.019,1.019,0,0,0,.381.852,8.831,8.831,0,0,0,11.914-.25.882.882,0,0,0,.309-.7c-.016-1.512-.022-3.023,0-4.535.006-.384-.094-.485-.478-.48C1252.74,366.518,1250.814,366.507,1248.887,366.507Zm7.835-8.025c-1.616,0-15.417.014-17.033,0-.319,0,.859,4.326,1.045,4.579.453.618.88,1.254,1.3,1.893a.58.58,0,0,0,.545.313q2.58-.019,5.161,0c.3,0,.4-.1.393-.4-.015-.58.005-1.161-.006-1.741-.009-.452.055-.9.6-.9.581,0,.654.458.647.932-.008.559.013,1.12-.007,1.679-.011.321.093.429.423.427,1.741-.014,5.681-.088,5.827-.328.353-.585.707-1.171,1.1-1.728C1256.955,362.883,1258.339,358.481,1256.722,358.481Zm-12.528,16.377c0,.716,0,1.371,0,2.026,0,1.609.157,1.43-1.394,1.9-.392.118-.479.2-.174.534,1.969,2.184,3.932,1.88,5.875,4.088.287.326.414.243.651-.025,1.261-1.428,5.354-3.489,6.161-4.39a10.1,10.1,0,0,0-1.183-.375.94.94,0,0,1-.858-1.131c.04-.852.01-1.707.01-2.623A10.278,10.278,0,0,1,1244.193,374.858Zm14.573-9.991h-.014a14.828,14.828,0,0,1-.012,1.553c-.05.472.17.5.529.47a2.087,2.087,0,0,0-.07-4.164c-.318-.02-.453.059-.439.4C1258.783,363.707,1258.766,364.288,1258.766,364.868Zm-20.038-.042h-.013c0-.58-.009-1.16,0-1.74.005-.255-.059-.36-.343-.363a2.089,2.089,0,0,0,0,4.177c.32,0,.37-.113.357-.4C1238.712,365.945,1238.729,365.385,1238.729,364.826Zm1.291-.555c-.285,2.291.338,5.218,1.281,6.044a21.835,21.835,0,0,1,.023-2.791A4.164,4.164,0,0,0,1240.02,364.27Zm16.36,5.7a8.248,8.248,0,0,0,1.041-5.518c-.3.677-1.021,1.125-1.035,1.928C1256.365,367.582,1256.38,368.779,1256.38,369.975Zm-16.429-8.471Z" transform="translate(-1229.388 -345.774)" fill="#4e3495"/>
              <path id="Path_19459" data-name="Path 19459" d="M1231.778,469.913a.584.584,0,0,1,.509.456c.083.255.155.514.229.772a2.392,2.392,0,0,0,1.717,1.787c.372.1.66.3.651.714-.008.38-.268.577-.623.672a2.566,2.566,0,0,0-1.822,2.006,6.311,6.311,0,0,1-.19.653.659.659,0,0,1-1.187,0,3.394,3.394,0,0,1-.147-.537,2.6,2.6,0,0,0-1.81-2.092c-.349-.114-.667-.265-.672-.7-.005-.471.327-.62.707-.732a2.667,2.667,0,0,0,1.8-2.248C1231.025,470.289,1231.143,469.929,1231.778,469.913Zm-.124,2.614c-.13.182-.205.3-.3.413-.209.243-.608.491-.591.712.019.25.443.447.628.711.224.322.3.217.554,0,.605-.52.657-.95,0-1.437A1.923,1.923,0,0,1,1231.654,472.527Z" transform="translate(-1228.434 -469.913)" fill="#f02a4c"/>
              <path id="Path_19460" data-name="Path 19460" d="M1442.327,469.933a.6.6,0,0,1,.6.444c.065.2.106.4.162.6a2.533,2.533,0,0,0,1.836,1.986.691.691,0,0,1,.6.689.7.7,0,0,1-.616.678,2.54,2.54,0,0,0-1.811,1.94c-.064.218-.1.443-.178.657a.614.614,0,0,1-.616.435.591.591,0,0,1-.619-.421c-.057-.177-.1-.358-.14-.539a2.589,2.589,0,0,0-1.79-2.037c-.372-.122-.7-.286-.678-.759.022-.436.341-.572.7-.676a2.688,2.688,0,0,0,1.806-2.241C1441.733,470.1,1441.927,469.92,1442.327,469.933Zm-.982,3.693.926,1.02.986-.953-.983-1.121A4.367,4.367,0,0,1,1441.345,473.626Z" transform="translate(-1405.383 -447.477)" fill="#f02a4c"/>
              <path id="Path_19464" data-name="Path 19464" d="M1323.658,434.647c.028.457-.061.887-.6.895-.574.008-.652-.443-.652-.913s.116-.868.645-.859S1323.69,434.2,1323.658,434.647Z" transform="translate(-1308.066 -417.314)" fill="#4e3495"/>
              <path id="Path_19465" data-name="Path 19465" d="M1376.532,434.67c.024.455-.088.876-.613.887-.58.012-.638-.439-.639-.912s.1-.866.634-.855S1376.556,434.213,1376.532,434.67Z" transform="translate(-1352.166 -417.331)" fill="#4e3495"/>
            </g>
            <path id="Path_19468" data-name="Path 19468" d="M-13729.954-609.763v-8.214l.485-1.546-1.356-2.223v-7.538l1.356-.387,1.254.387v-.966l2.126-1.353s1.354-.29,1.451,0a1.436,1.436,0,0,1,0,.676l1.836-.676h1.448v-1.74l.484-4.929h1.448s.777,0,.869.483-.092.58,0,1.74,0,9.857,0,9.857l.967,1.739v1.933l-.967,1.45-.869,1.546.869,1.546v5.508l.967,13.53-11.884-7.248Z" transform="translate(13737.907 657.89)" fill="#fff"/>
            <g id="Group_16590" data-name="Group 16590" transform="translate(6.012 19.098) rotate(-2)">
              <g id="Group_16589" data-name="Group 16589" transform="translate(0 0)">
                <path id="Path_19466" data-name="Path 19466" d="M13.93,13.04a.818.818,0,0,1-.155-.5q.007-5.216,0-10.432c0-.162-.007-.324-.019-.486A1.792,1.792,0,0,0,11.835.008a1.811,1.811,0,0,0-1.662,1.9c0,1.692,0,3.383,0,5.075v.324a2.078,2.078,0,0,0-3.158.376A1.993,1.993,0,0,0,4.587,6.9,2.151,2.151,0,0,0,3.255,9.407a.331.331,0,0,1-.067-.013c-.028-.019-.055-.041-.083-.06a1.87,1.87,0,0,0-2.094-.142A1.927,1.927,0,0,0,0,11.042q.016,2.345.021,4.69a10.189,10.189,0,0,0,.093,1.379,5.939,5.939,0,0,0,1.168,2.738,3.024,3.024,0,0,0-1.025,2.3V61.956H13.269V22.148a3.056,3.056,0,0,0-.816-2.1,8.361,8.361,0,0,0,.917-1.187,7.378,7.378,0,0,0,1.136-3.671A3.333,3.333,0,0,0,13.93,13.04Zm-3.1-9.733c0-.487-.007-.974,0-1.461a1.157,1.157,0,1,1,2.312-.008q.007,5.125,0,10.25c0,.031,0,.062-.01.124a4.364,4.364,0,0,0-.985-.46,2.979,2.979,0,0,0-1.038-.12c-.224.017-.285-.048-.285-.278C10.829,8.671,10.825,5.989,10.825,3.307ZM7.348,8.722a1.406,1.406,0,0,1,1.411-1.34,1.42,1.42,0,0,1,1.406,1.323c.015.452,0,.9,0,1.357h0c0,.453,0,.905,0,1.358,0,.146-.023.213-.193.211-.82-.009-1.639-.007-2.459,0-.149,0-.188-.05-.187-.192C7.343,10.532,7.334,9.627,7.348,8.722Zm-3.44-.08a1.391,1.391,0,0,1,2.773.126c.009.435,0,.87,0,1.305h0c0,.452-.006.9,0,1.356,0,.159-.048.2-.2.2-.649-.008-1.3,0-1.945,0a1.092,1.092,0,0,0-.356.015c-.283.1-.32-.017-.308-.266C3.919,10.466,3.827,9.552,3.908,8.642ZM.674,11.076a1.285,1.285,0,0,1,2.568-.048q.021.985,0,1.972a1.3,1.3,0,0,1-2.447.59.913.913,0,0,1-.113-.44c0-.367,0-.733,0-1.1H.674C.674,11.724.672,11.4.674,11.076ZM12.5,22.148V61.123H1.023V22.148a2.148,2.148,0,0,1,.785-1.687,6.036,6.036,0,0,0,2.7,1.64,8.8,8.8,0,0,0,3.758.145A7.131,7.131,0,0,0,11.878,20.6s-.135-.366.021.021A4.171,4.171,0,0,1,12.5,22.148Zm-1.754-1.525a7.337,7.337,0,0,1-4.6,1.089A5.564,5.564,0,0,1,2.525,20.26,5.445,5.445,0,0,1,.682,16.236c-.016-.569,0-1.139,0-1.749a1.971,1.971,0,0,0,2.272.165,1.6,1.6,0,0,0,.479-.419c.077-.1.128-.144.215,0a3.085,3.085,0,0,0,2.92,1.543c.348-.008.7,0,1.1,0-.1.1-.166.156-.23.218a3.153,3.153,0,0,0-1,2.179c-.016.29-.008.581-.006.871s.109.434.318.438.331-.147.334-.449,0-.6.008-.9A2.536,2.536,0,0,1,9.5,15.786a.931.931,0,0,0,.228-.021.306.306,0,0,0,.254-.335.31.31,0,0,0-.293-.3,1.451,1.451,0,0,0-.231-.005c-1.033,0-2.067.008-3.1,0a2.378,2.378,0,0,1-2.4-1.872,1.983,1.983,0,0,1-.053-.532c.006-.288.229-.456.6-.458.606,0,1.213,0,1.818,0,1.589,0,3.177,0,4.765,0a2.694,2.694,0,0,1,2.265,1.082,2.347,2.347,0,0,1,.509,1.447A6.651,6.651,0,0,1,10.749,20.622Z" fill="#4e3495" stroke="#4e3495" stroke-width="0.4"/>
              </g>
            </g>
          </g>
        </g>
      </g>
    </g>
  </g>
</svg>
